<?xml version="1.0" standalone="no"?>
<!DOCTYPE svg PUBLIC "-//W3C//DTD SVG 20010904//EN"
 "http://www.w3.org/TR/2001/REC-SVG-20010904/DTD/svg10.dtd">
<svg version="1.0" xmlns="http://www.w3.org/2000/svg"
 width="256.000000pt" height="256.000000pt" viewBox="0 0 256.000000 256.000000"
 preserveAspectRatio="xMidYMid meet">
<metadata>
Created by potrace 1.11, written by Peter Selinger 2001-2013
</metadata>
<g transform="translate(0.000000,256.000000) scale(0.100000,-0.100000)"
fill="#000000" stroke="none">
<path d="M1175 2553 c-117 -24 -174 -43 -252 -84 -101 -52 -99 -51 -176 -124
-73 -68 -130 -147 -171 -236 -54 -116 -69 -187 -72 -344 -3 -121 -1 -146 15
-182 31 -66 91 -116 156 -129 22 -4 218 -8 435 -9 390 -1 396 -1 470 -25 104
-34 253 -33 355 3 39 13 76 26 83 28 7 2 24 -15 39 -41 14 -24 40 -68 59 -97
19 -29 34 -55 34 -57 0 -2 31 -54 69 -117 l69 -113 -23 -30 c-24 -31 -41 -81
-37 -103 3 -16 18 -15 -181 -17 -191 -1 -177 -11 -147 101 23 87 19 118 -21
158 l-29 30 -556 3 c-613 3 -606 3 -637 -59 -15 -31 -13 -99 4 -131 5 -9 9
-26 9 -37 0 -18 -6 -21 -47 -22 -59 -1 -180 -1 -210 0 -16 1 -27 11 -37 33
-37 89 -148 128 -235 84 -59 -31 -94 -111 -79 -180 10 -43 53 -106 74 -106 18
0 17 8 19 -208 l1 -182 -38 0 c-83 0 -118 -38 -112 -123 2 -32 5 -61 8 -65 2
-4 7 -31 11 -61 12 -97 32 -124 75 -101 25 13 24 25 -10 210 -5 24 -6 48 -4
51 2 4 52 6 111 6 l108 -2 -1 -35 c0 -19 -3 -53 -7 -75 -4 -22 -10 -63 -13
-92 -6 -50 -5 -53 20 -64 41 -19 51 1 74 134 28 169 14 204 -88 217 l-45 5 -3
183 c-2 178 -2 182 18 182 29 0 68 28 99 70 l26 35 145 -1 c80 -1 150 -2 157
-3 10 -1 17 -20 29 -76 1 -5 12 -48 24 -95 12 -47 24 -96 27 -110 30 -144 71
-213 149 -249 45 -22 58 -22 364 -22 306 0 319 1 364 22 75 35 115 96 141 215
10 49 68 269 71 273 2 2 95 4 206 4 144 1 203 -2 206 -11 6 -18 63 -50 100
-55 64 -10 142 29 173 85 17 31 21 96 9 132 -14 44 -81 105 -118 108 -15 1
-36 2 -46 2 -14 1 -41 37 -91 121 -39 66 -99 166 -133 223 l-61 103 63 63 c70
71 112 139 146 236 33 97 32 257 -3 358 -62 177 -189 306 -366 369 -93 34
-239 39 -340 12 -70 -18 -77 -18 -135 -3 -57 15 -247 27 -291 17z"/>
<path d="M883 82 c-15 -2 -25 -13 -29 -29 -13 -52 -6 -53 431 -53 415 0 425 1
425 41 0 41 -14 43 -418 43 -213 1 -397 0 -409 -2z"/>
</g>
</svg>
